<?xml version="1.0" standalone="no"?>
<!DOCTYPE svg PUBLIC "-//W3C//DTD SVG 20010904//EN"
 "http://www.w3.org/TR/2001/REC-SVG-20010904/DTD/svg10.dtd">
<svg version="1.0" xmlns="http://www.w3.org/2000/svg"
 width="260.000000pt" height="260.000000pt" viewBox="0 0 260.000000 260.000000"
 preserveAspectRatio="xMidYMid meet">
<metadata>
Created by potrace 1.11, written by Peter Selinger 2001-2013
</metadata>
<g transform="translate(0.000000,260.000000) scale(0.100000,-0.100000)"
fill="#000000" stroke="none">
<path d="M0 1300 l0 -1300 1300 0 1300 0 0 1300 0 1300 -1300 0 -1300 0 0
-1300z m1402 910 c145 -44 243 -156 209 -238 -13 -31 -61 -64 -219 -154 -207
-117 -292 -193 -292 -263 0 -30 13 -54 95 -169 86 -120 4 -237 -235 -336 -93
-38 -215 -70 -270 -70 -48 0 -46 15 2 23 69 11 196 68 241 108 103 90 85 149
-89 289 -63 51 -133 113 -155 138 -159 181 -19 469 301 621 47 22 110 47 140
55 81 21 196 20 272 -4z m239 -444 c20 -43 2 -86 -121 -294 -66 -112 -120
-205 -120 -207 0 -2 32 16 71 40 78 48 211 101 228 90 19 -11 12 -88 -13 -141
-20 -44 -31 -54 -67 -68 -24 -9 -75 -20 -112 -25 -38 -5 -75 -15 -83 -22 -34
-28 -6 -86 69 -140 47 -34 26 -39 -33 -9 -50 26 -108 83 -116 115 -3 14 -10
25 -14 25 -4 0 -31 -50 -59 -111 -29 -61 -55 -109 -58 -106 -11 11 156 617
196 709 52 121 201 214 232 144z m304 -296 c43 -16 48 -50 25 -163 -11 -56
-20 -139 -20 -189 0 -120 11 -124 99 -30 65 70 89 88 77 57 -3 -8 -81 -115
-172 -237 -174 -229 -332 -407 -384 -428 -30 -12 -65 -7 -58 8 2 5 44 43 93
85 129 108 315 306 315 335 0 4 -13 13 -29 19 -24 8 -38 29 -75 104 -55 114
-72 198 -56 274 14 65 57 128 107 154 45 24 45 24 78 11z"/>
</g>
</svg>
